<svg width="672" height="320" viewBox="0 0 672 320" fill="none" xmlns="http://www.w3.org/2000/svg">
<rect width="672" height="320" fill="white"/>
<g clip-path="url(#clip0_442_99)">
<path d="M635 120.239C635 121.395 634.658 122.524 634.017 123.485C633.375 124.446 632.464 125.195 631.397 125.637C630.331 126.08 629.157 126.195 628.025 125.97C626.893 125.744 625.852 125.188 625.036 124.371C624.22 123.554 623.664 122.512 623.439 121.379C623.214 120.246 623.329 119.071 623.771 118.003C624.213 116.935 624.961 116.023 625.921 115.381C626.881 114.739 628.009 114.396 629.163 114.396C630.711 114.396 632.196 115.012 633.291 116.107C634.385 117.203 635 118.689 635 120.239ZM634.214 120.239C634.209 119.24 633.909 118.265 633.351 117.437C632.793 116.608 632.003 115.964 631.08 115.585C630.156 115.206 629.142 115.109 628.164 115.307C627.185 115.505 626.288 115.988 625.584 116.696C624.88 117.404 624.401 118.305 624.208 119.285C624.015 120.265 624.117 121.281 624.5 122.203C624.883 123.126 625.53 123.914 626.36 124.468C627.19 125.023 628.166 125.319 629.163 125.319C630.505 125.313 631.79 124.775 632.736 123.823C633.683 122.871 634.214 121.582 634.214 120.239ZM630.236 120.74L631.998 123.459H630.641L629.044 120.883H628.139V123.459H627.019V116.996H629.402C629.922 116.989 630.424 117.188 630.799 117.55C631.173 117.912 631.39 118.407 631.403 118.927C631.428 119.315 631.328 119.7 631.118 120.026C630.908 120.353 630.598 120.603 630.236 120.74ZM628.139 119.977H629.33C629.455 119.98 629.58 119.958 629.697 119.913C629.814 119.868 629.92 119.801 630.011 119.714C630.102 119.628 630.175 119.524 630.225 119.41C630.276 119.295 630.304 119.172 630.307 119.047C630.304 118.922 630.276 118.8 630.225 118.687C630.174 118.573 630.101 118.472 630.01 118.387C629.919 118.303 629.812 118.237 629.695 118.195C629.578 118.152 629.454 118.134 629.33 118.14H628.139V119.977ZM416.107 133.452H424.898V186.111H416.107V133.452ZM383.969 132.283C378.364 132.281 372.932 134.228 368.603 137.792V133.38H359.836V186.087H368.603V156.371C368.603 152.291 370.222 148.378 373.104 145.494C375.985 142.609 379.894 140.988 383.969 140.988C388.045 140.988 391.953 142.609 394.835 145.494C397.717 148.378 399.335 152.291 399.335 156.371V186.087H408.126V156.371C408.126 153.196 407.501 150.053 406.287 147.12C405.073 144.187 403.293 141.523 401.049 139.279C398.806 137.035 396.143 135.256 393.212 134.044C390.281 132.831 387.14 132.208 383.969 132.211V132.283ZM342.278 133.428H351.069V184.108C350.91 191.355 347.962 198.261 342.84 203.385C337.717 208.509 330.816 211.454 323.576 211.606C317.717 211.765 311.97 209.981 307.23 206.53C302.49 203.079 299.023 198.155 297.37 192.526H306.899C308.355 195.696 310.715 198.364 313.683 200.193C316.651 202.022 320.093 202.931 323.576 202.806C328.483 202.639 333.144 200.613 336.616 197.138C340.088 193.662 342.111 188.996 342.278 184.084V179.862C338.358 183.512 333.46 185.937 328.183 186.839C322.907 187.741 317.482 187.082 312.575 184.942C307.667 182.802 303.491 179.275 300.557 174.792C297.624 170.31 296.061 165.068 296.061 159.71C296.061 154.351 297.624 149.109 300.557 144.627C303.491 140.145 307.667 136.617 312.575 134.477C317.482 132.337 322.907 131.678 328.183 132.581C333.46 133.483 338.358 135.908 342.278 139.557V133.428ZM342.278 159.781C342.278 156.078 341.181 152.459 339.126 149.38C337.071 146.301 334.15 143.902 330.733 142.485C327.315 141.068 323.555 140.697 319.927 141.419C316.3 142.142 312.967 143.925 310.352 146.543C307.736 149.161 305.955 152.497 305.234 156.129C304.512 159.761 304.882 163.525 306.298 166.946C307.713 170.367 310.11 173.291 313.186 175.348C316.261 177.405 319.877 178.503 323.576 178.503C326.038 178.503 328.476 178.016 330.749 177.071C333.023 176.126 335.088 174.74 336.825 172.994C338.563 171.248 339.939 169.176 340.875 166.896C341.81 164.617 342.287 162.174 342.278 159.71V159.781ZM206.482 141.06C210.044 141.057 213.532 142.072 216.537 143.986C219.542 145.899 221.938 148.632 223.445 151.863H232.807C230.909 145.537 226.801 140.105 221.233 136.559C215.665 133.014 209.009 131.591 202.48 132.552C195.951 133.512 189.985 136.791 185.671 141.79C181.358 146.79 178.984 153.175 178.984 159.781C178.984 166.387 181.358 172.773 185.671 177.772C189.985 182.771 195.951 186.051 202.48 187.011C209.009 187.971 215.665 186.549 221.233 183.004C226.801 179.458 230.909 174.026 232.807 167.699H223.397C221.969 170.729 219.755 173.319 216.986 175.201C214.217 177.082 210.995 178.185 207.655 178.395C204.316 178.604 200.981 177.913 197.999 176.394C195.017 174.874 192.496 172.581 190.701 169.754C188.906 166.927 187.901 163.669 187.792 160.321C187.683 156.973 188.473 153.657 190.08 150.718C191.687 147.78 194.052 145.327 196.929 143.616C199.805 141.904 203.088 140.997 206.434 140.988L206.482 141.06ZM291.914 159.781C291.905 165.219 290.287 170.531 287.264 175.049C284.242 179.566 279.95 183.087 274.931 185.165C269.912 187.244 264.391 187.788 259.064 186.728C253.736 185.668 248.842 183.053 244.998 179.211C241.154 175.37 238.533 170.475 237.465 165.144C236.398 159.812 236.931 154.284 238.999 149.256C241.067 144.228 244.576 139.926 249.083 136.893C253.591 133.859 258.895 132.23 264.326 132.211C267.939 132.205 271.517 132.912 274.856 134.29C278.196 135.669 281.231 137.693 283.789 140.247C286.346 142.801 288.376 145.834 289.762 149.174C291.148 152.513 291.863 156.093 291.866 159.71L291.914 159.781ZM283.147 159.781C283.161 156.081 282.079 152.459 280.038 149.373C277.997 146.288 275.088 143.877 271.679 142.446C268.27 141.014 264.514 140.626 260.884 141.331C257.255 142.036 253.916 143.801 251.289 146.405C248.662 149.008 246.864 152.333 246.123 155.958C245.382 159.584 245.732 163.348 247.127 166.775C248.522 170.202 250.9 173.139 253.961 175.213C257.023 177.288 260.629 178.408 264.326 178.431C266.787 178.438 269.225 177.958 271.501 177.021C273.777 176.083 275.846 174.705 277.589 172.966C279.333 171.228 280.717 169.162 281.663 166.887C282.608 164.612 283.096 162.173 283.099 159.71L283.147 159.781ZM570.223 132.211C564.659 132.237 559.274 134.183 554.976 137.721V133.38H546.209V186.087H554.976V156.371C554.976 152.291 556.595 148.378 559.477 145.494C562.359 142.609 566.267 140.988 570.343 140.988C574.418 140.988 578.326 142.609 581.208 145.494C584.09 148.378 585.709 152.291 585.709 156.371V186.087H594.476V156.371C594.479 153.187 593.853 150.034 592.634 147.094C591.415 144.154 589.627 141.484 587.372 139.238C585.118 136.993 582.442 135.216 579.499 134.01C576.556 132.804 573.404 132.193 570.223 132.211ZM528.532 133.404H537.323V186.111H528.532V179.862C525.249 182.897 521.277 185.085 516.958 186.235C512.64 187.386 508.107 187.464 503.752 186.464C499.396 185.464 495.351 183.415 491.965 180.495C488.58 177.575 485.957 173.873 484.325 169.709C482.692 165.545 482.099 161.045 482.597 156.6C483.094 152.154 484.668 147.897 487.18 144.199C489.693 140.5 493.069 137.47 497.016 135.373C500.963 133.276 505.362 132.174 509.83 132.164C516.768 132.156 523.451 134.781 528.532 139.509V133.404ZM528.532 159.638C528.532 155.935 527.435 152.316 525.38 149.237C523.325 146.158 520.404 143.759 516.987 142.342C513.57 140.925 509.809 140.554 506.182 141.276C502.554 141.999 499.222 143.782 496.606 146.4C493.991 149.018 492.209 152.354 491.488 155.986C490.766 159.617 491.137 163.382 492.552 166.803C493.968 170.224 496.365 173.148 499.44 175.205C502.516 177.262 506.131 178.36 509.83 178.36C514.778 178.36 519.524 176.397 523.029 172.902C526.534 169.406 528.513 164.663 528.532 159.71V159.638ZM623.708 142.085V133.38H610.557V119.07H601.766V168.51C601.766 173.168 603.613 177.635 606.9 180.931C610.188 184.226 614.648 186.081 619.3 186.087H623.684V177.215H619.3C616.973 177.209 614.743 176.279 613.1 174.629C611.456 172.979 610.533 170.745 610.533 168.415V142.18L623.708 142.085ZM420.515 114.372C419.358 114.367 418.227 114.707 417.263 115.347C416.3 115.987 415.548 116.899 415.103 117.968C414.658 119.037 414.541 120.214 414.765 121.349C414.99 122.485 415.546 123.528 416.364 124.347C417.182 125.165 418.224 125.722 419.358 125.947C420.493 126.172 421.668 126.054 422.736 125.609C423.803 125.164 424.715 124.411 425.354 123.447C425.994 122.482 426.333 121.349 426.328 120.191C426.328 118.648 425.715 117.168 424.625 116.077C423.535 114.985 422.057 114.372 420.515 114.372ZM477.692 133.452H433.761V142.252H466.256L433.761 177.215V186.016H477.644V177.215H445.125L477.62 142.085L477.692 133.452Z" fill="#000048"/>
<path fill-rule="evenodd" clip-rule="evenodd" d="M90.9603 160.473H38L74.3789 212.894L112.116 190.332L90.9603 160.473Z" fill="url(#paint0_linear_442_99)"/>
<path fill-rule="evenodd" clip-rule="evenodd" d="M162.17 160.473L74.3789 212.894H126.482L162.17 160.473Z" fill="url(#paint1_linear_442_99)"/>
<path fill-rule="evenodd" clip-rule="evenodd" d="M38 160.473H90.9602L112.163 130.613L74.3789 108.052L38 160.473Z" fill="url(#paint2_linear_442_99)"/>
<path fill-rule="evenodd" clip-rule="evenodd" d="M162.17 160.473L74.3789 108.052H126.482L162.17 160.473Z" fill="url(#paint3_linear_442_99)"/>
</g>
<defs>
<linearGradient id="paint0_linear_442_99" x1="36.1565" y1="185.483" x2="110.054" y2="185.483" gradientUnits="userSpaceOnUse">
<stop stop-color="#3D54CE"/>
<stop offset="1" stop-color="#35CACF"/>
</linearGradient>
<linearGradient id="paint1_linear_442_99" x1="67.227" y1="185.483" x2="155.154" y2="185.483" gradientUnits="userSpaceOnUse">
<stop stop-color="#13457D"/>
<stop offset="1" stop-color="#279698"/>
</linearGradient>
<linearGradient id="paint2_linear_442_99" x1="37.6307" y1="133.219" x2="111.584" y2="133.219" gradientUnits="userSpaceOnUse">
<stop stop-color="#090086"/>
<stop offset="1" stop-color="#2F96A9"/>
</linearGradient>
<linearGradient id="paint3_linear_442_99" x1="67.227" y1="133.219" x2="155.154" y2="133.219" gradientUnits="userSpaceOnUse">
<stop stop-color="#3B62CA"/>
<stop offset="1" stop-color="#93DFE3"/>
</linearGradient>
<clipPath id="clip0_442_99">
<rect width="597" height="104.946" fill="white" transform="translate(38 108)"/>
</clipPath>
</defs>
</svg>
