<svg width="672" height="320" viewBox="0 0 672 320" fill="none" xmlns="http://www.w3.org/2000/svg">
<rect width="672" height="320" fill="white"/>
<path d="M84.6848 120.785C77.6961 120.785 75.5995 123.794 75.5995 130.498V141.579H94.3293L92.5122 159.637H75.5995V214.222H53.0957V159.637H38V141.715H53.0957V130.908C53.0957 112.576 60.6435 103 81.47 103C85.803 103 90.2758 103.274 94.6089 103.821V120.785" fill="#004F9D"/>
<path d="M95.8663 175.643C95.8663 155.396 105.651 140.074 126.337 140.074C137.519 140.074 144.368 145.683 147.723 152.797V141.716H169.248V214.358H147.583V203.414C144.508 210.391 137.38 215.863 126.198 215.863C105.651 215.863 95.7266 200.678 95.7266 180.294M118.37 180.568C118.37 191.375 122.424 198.626 132.907 198.626C142.132 198.626 146.744 192.059 146.744 181.662V174.275C146.744 163.878 141.992 157.311 132.907 157.311C122.424 157.311 118.37 164.425 118.37 175.369V180.568Z" fill="#004F9D"/>
<path d="M215.935 140.074C224.601 140.074 232.988 141.852 237.46 144.999L232.429 160.595C227.816 158.406 222.644 157.311 217.473 157.311C205.312 157.311 200.001 164.151 200.001 175.917V180.158C200.001 191.923 205.312 198.763 217.473 198.763C222.644 198.763 227.816 197.532 232.429 195.343L237.46 210.938C232.988 213.948 224.741 215.863 215.935 215.863C189.518 215.863 177.637 202.046 177.637 179.747V176.327C177.637 154.028 189.518 140.074 215.935 140.074Z" fill="#004F9D"/>
<path d="M240.395 180.705V174.275C240.395 153.618 252.415 140.074 276.876 140.074C299.939 140.074 310.142 153.754 310.142 174.001V185.63H262.898C263.318 195.616 267.93 199.994 280.37 199.994C288.477 199.994 296.584 198.489 304.272 195.616L308.325 210.665C302.455 213.674 290.294 216 279.532 216C251.017 215.863 240.395 202.046 240.395 180.705ZM262.898 171.128H290.015V169.35C290.015 161.415 286.8 155.122 276.876 155.122C266.812 155.122 262.898 161.415 262.898 171.128Z" fill="#004F9D"/>
<path d="M393.449 180.294C393.449 200.541 383.525 215.863 362.838 215.863C351.656 215.863 343.829 210.391 340.754 203.414V214.358H319.508V105.189L342.012 103.274V151.839C345.226 145.409 352.495 140.211 362.978 140.211C383.525 140.211 393.589 155.396 393.589 175.78M370.945 175.233C370.945 164.972 366.892 157.311 356.129 157.311C346.904 157.311 342.012 163.741 342.012 174.138V181.799C342.012 192.196 347.043 198.626 356.129 198.626C366.892 198.626 370.945 190.965 370.945 180.705V175.233Z" fill="#004F9D"/>
<path d="M400.855 179.747V176.053C400.855 155.122 413.016 140.074 437.756 140.074C462.496 140.074 474.657 155.122 474.657 176.053V179.747C474.657 200.678 462.496 215.727 437.756 215.727C413.016 215.727 400.855 200.815 400.855 179.747ZM452.293 174.549C452.293 164.972 448.239 157.311 437.756 157.311C427.273 157.311 423.219 164.972 423.219 174.549V181.389C423.219 190.965 427.273 198.626 437.756 198.626C448.239 198.626 452.293 190.965 452.293 181.389V174.549Z" fill="#004F9D"/>
<path d="M482.344 179.747V176.053C482.344 155.122 494.504 140.074 519.244 140.074C543.985 140.074 556.145 155.122 556.145 176.053V179.747C556.145 200.678 543.985 215.727 519.244 215.727C494.504 215.727 482.344 200.815 482.344 179.747ZM533.781 174.549C533.781 164.972 529.727 157.311 519.244 157.311C508.761 157.311 504.708 164.972 504.708 174.549V181.389C504.708 190.965 508.761 198.626 519.244 198.626C529.727 198.626 533.781 190.965 533.781 181.389V174.549Z" fill="#004F9D"/>
<path d="M587.036 176.327L609.26 141.579H633.022L609.819 177.558L634 214.358H610.099L587.036 178.789V214.358H564.672V105.189L587.036 103.137" fill="#004F9D"/>
</svg>
