<svg width="672" height="320" viewBox="0 0 672 320" fill="none" xmlns="http://www.w3.org/2000/svg">
<rect width="672" height="320" fill="white"/>
<g clip-path="url(#clip0_442_89)">
<path d="M638.884 107.64C638.817 107.414 638.748 107.189 638.659 106.963C585.245 106.986 531.854 106.963 478.462 106.986C478.327 107.144 478.237 107.302 478.214 107.505C478.214 148.923 478.214 190.319 478.191 231.738C478.53 233.948 479.747 235.954 481.371 237.465C481.439 237.488 481.596 237.51 481.664 237.533C482.498 238.412 483.693 238.841 484.821 239.246C485.655 239.201 486.467 239.562 487.301 239.472H553.589C554.22 239.449 554.874 239.562 555.482 239.314C555.505 239.224 555.528 239.066 555.55 238.976C555.573 238.863 555.595 238.615 555.618 238.48C557.039 230.544 558.414 222.585 559.925 214.648L560.06 213.634C553.927 213.611 547.772 213.634 541.639 213.611C540.151 213.566 538.618 213.611 537.13 213.43C534.582 213.317 532.012 213.407 529.464 213.16C526.308 213.16 523.174 212.866 520.017 212.866C517.537 212.618 515.034 212.709 512.531 212.596C510.908 212.394 509.24 212.483 507.594 212.415C504.911 212.123 502.183 212.326 499.5 212.032C496.659 212.055 493.818 211.807 490.977 211.739C490.999 211.716 491.022 211.626 491.022 211.604C491.969 211.626 492.893 211.559 493.84 211.536C495.937 211.265 498.057 211.446 500.154 211.153C502.341 211.153 504.505 210.86 506.692 210.86C508.631 210.589 510.593 210.747 512.531 210.476C514.809 210.476 517.041 210.183 519.318 210.161C521.19 209.913 523.084 210.048 524.955 209.8C527.142 209.822 529.307 209.484 531.494 209.507C533.636 209.259 535.822 209.326 537.964 209.101C537.762 208.267 537.604 207.433 537.424 206.598C537.266 206.079 536.635 206.192 536.229 206.124C531.336 205.425 526.466 204.727 521.596 204.05C521.911 203.802 522.34 203.914 522.701 203.87C526.488 203.576 530.254 203.238 534.042 202.968C534.898 202.923 535.733 202.765 536.589 202.742C536.206 201.57 535.981 200.285 535.462 199.203C527.368 197.963 519.273 196.858 511.202 195.527C513.298 195.189 515.418 195.031 517.515 194.806L517.695 194.738C524.392 194.039 531.111 193.25 537.807 192.596C546.307 192.551 554.785 192.573 563.285 192.596C563.555 192.551 564.029 192.686 564.074 192.303C564.773 188.65 565.45 184.998 566.148 181.345C567.118 176.272 568.651 171.267 571.018 166.645C574.738 159.204 580.623 152.891 587.793 148.697C594.489 144.774 602.246 142.88 609.957 142.52C612.46 142.294 614.985 142.362 617.465 142.677C619.088 143.061 620.757 143.512 622.042 144.616C623.102 145.473 623.733 146.736 624.207 147.998C625.244 150.997 625.83 154.109 626.326 157.243C626.349 158.505 626.574 159.926 625.898 161.076C625.266 162.203 624.004 162.744 622.809 163.082C618.457 164.21 613.903 163.15 609.551 164.21C605.967 164.976 602.629 166.96 600.352 169.824C597.669 173.161 596.248 177.309 595.459 181.458C594.851 185.156 594.084 188.853 593.475 192.574C597.759 192.597 602.066 192.551 606.372 192.597C608.085 192.597 609.844 193.543 610.543 195.166C611.445 197.241 611.242 199.586 610.949 201.773C610.588 204.231 610.002 206.665 608.897 208.92C607.972 210.837 606.44 212.596 604.343 213.272C603.26 213.7 602.088 213.61 600.938 213.61C597.15 213.61 593.362 213.655 589.574 213.61C588.966 216.384 588.56 219.224 588.019 222.043C587.027 227.521 586.057 233.023 585.065 238.525C585.042 238.705 585.02 239.088 585.02 239.291C586.801 239.381 588.582 239.291 590.364 239.336C603.576 239.336 616.811 239.313 630.046 239.336C631.467 239.381 632.91 239.043 634.15 238.344C634.894 238.074 635.345 237.42 635.999 237.059C636.63 236.698 636.81 235.955 637.351 235.481C637.938 234.444 638.546 233.362 638.592 232.144C638.659 232.144 638.84 232.121 638.93 232.099C638.861 190.613 638.929 149.126 638.884 107.64Z" fill="url(#paint0_linear_442_89)" stroke="#FCD109" stroke-width="0.094"/>
<path d="M499.228 80.358C501.145 79.7492 503.151 80.1551 505.113 80.0198C541.933 80.0423 578.752 80.0198 615.571 80.0198C617.758 79.9296 619.674 81.1697 621.703 81.801C623.327 82.4549 625.018 82.9735 626.641 83.6724C626.979 83.8077 627.227 84.1008 627.475 84.3488C627.453 87.325 627.475 90.3238 627.475 93.3225C627.498 94.1117 627.362 94.9234 627.633 95.69C628.107 95.7576 628.354 96.1183 628.67 96.4115C630.159 97.0879 631.421 98.1927 632.774 99.0945C634.803 100.538 636.968 101.8 638.951 103.288C639.041 103.875 638.974 104.483 638.794 105.024C638.591 105.656 638.726 106.332 638.658 106.963C585.245 106.986 531.853 106.963 478.462 106.986C478.349 106.242 478.552 105.498 478.237 104.799C478.191 104.213 477.989 103.446 478.552 103.04C480.807 101.462 483.197 100.042 485.406 98.373C486.782 97.4937 488.112 96.5918 489.442 95.69C489.713 95.239 489.622 94.6753 489.622 94.1793C489.622 90.91 489.622 87.6407 489.645 84.3714C490.412 83.3793 491.742 83.2666 492.801 82.7705C494.944 81.9588 497.109 81.1697 499.228 80.358ZM499.364 80.7413C496.478 81.8461 493.569 82.9058 490.683 84.0106C490.3 84.0783 490.096 84.4165 489.894 84.7096C489.916 84.8899 489.939 85.2056 489.939 85.386C489.916 88.0916 489.939 90.7973 489.916 93.5029C489.939 94.1793 489.848 94.8557 490.096 95.4645C489.803 95.7576 489.488 96.0507 489.127 96.2762C485.857 98.3956 482.701 100.695 479.432 102.792C478.868 103.13 478.237 103.581 478.417 104.325C478.304 104.731 478.507 105.069 478.936 104.957C486.015 104.912 493.072 105.002 500.153 104.889C510.682 104.889 521.189 104.912 531.718 104.889L531.876 104.821C532.35 104.934 532.823 104.889 533.319 104.889C552.394 104.889 571.468 104.912 590.565 104.889C596.563 104.912 602.583 104.889 608.603 104.889C618.524 104.889 628.467 104.979 638.388 104.934C638.681 104.867 638.771 104.664 638.658 104.303C638.635 103.942 638.771 103.446 638.388 103.221C636.81 102.477 635.457 101.327 633.946 100.425C633.405 99.9739 632.706 99.7259 632.3 99.1171C630.744 98.2378 629.301 97.1555 627.768 96.186C627.475 96.0056 627.249 95.7125 627.002 95.4645C627.137 94.991 627.182 94.4724 627.182 93.9764C627.159 91.1129 627.182 88.2494 627.159 85.386C627.227 84.935 627.204 84.4165 626.798 84.1234C624.093 83.1538 621.41 82.1167 618.726 81.1246C617.892 80.7188 616.968 80.4933 616.066 80.358H500.828C500.333 80.3806 499.86 80.6286 499.364 80.7413Z" fill="#F8F3B5" stroke="#F8F3B5" stroke-width="0.094"/>
<path d="M489.937 85.386C491.921 86.2202 494.04 86.6937 496.047 87.5054C497.13 87.9338 497.468 89.1062 497.941 90.0532C497.467 90.5267 496.904 90.91 496.34 91.2707C494.266 92.6687 492.146 94.0215 490.094 95.4645C489.846 94.8557 489.937 94.1793 489.914 93.5029C489.937 90.7973 489.915 88.0916 489.937 85.386ZM621.047 87.5054C623.054 86.7163 625.151 86.1751 627.158 85.386C627.181 88.2495 627.158 91.1129 627.181 93.9764C627.181 94.4724 627.135 94.991 627 95.4645C625.241 94.2469 623.46 93.0971 621.702 91.9021C620.845 91.2707 619.898 90.7973 619.131 90.0307C619.605 89.0837 619.966 87.9338 621.047 87.5054Z" fill="#F7B402" stroke="#F7B402" stroke-width="0.094"/>
<path d="M524.343 88.4299C526.823 87.8436 529.596 90.0532 529.393 92.6461C529.416 95.194 526.732 97.2683 524.275 96.6821C523.283 96.3439 522.336 95.8253 521.727 94.9459C520.938 93.751 520.757 92.1501 521.389 90.8424C521.84 89.5798 523.058 88.723 524.343 88.4299ZM588.669 89.8503C589.707 88.7004 591.352 88.0466 592.886 88.4524C594.036 88.7906 595.163 89.5347 595.659 90.662C596.651 92.6011 595.884 95.2165 593.945 96.2311C592.231 97.1781 590.067 96.7272 588.76 95.3518C587.429 93.8411 587.339 91.361 588.669 89.8503Z" fill="#BDA727" stroke="#BDA727" stroke-width="0.094"/>
<path d="M496.339 91.2708C496.903 90.9101 497.466 90.5268 497.94 90.0533L498.098 90.2111C498.256 91.3836 498.143 92.5786 498.188 93.751C498.12 97.2683 498.256 100.808 498.098 104.326C491.537 104.326 484.976 104.28 478.414 104.326C478.234 103.581 478.865 103.131 479.429 102.792C482.698 100.695 485.855 98.3957 489.124 96.2763C489.485 96.0508 489.8 95.7577 490.094 95.4646C492.145 94.0216 494.265 92.6688 496.339 91.2708ZM618.904 90.8199C618.904 90.5268 618.972 90.2788 619.129 90.0308C619.896 90.7974 620.844 91.2708 621.7 91.9022C623.459 93.0972 625.24 94.247 626.998 95.4646C627.246 95.7126 627.472 96.0057 627.765 96.1861C629.298 97.1556 630.741 98.2379 632.297 99.1172C632.703 99.726 633.401 99.974 633.943 100.425C635.453 101.327 636.806 102.477 638.385 103.221C638.768 103.446 638.633 103.942 638.655 104.303C632.094 104.326 625.555 104.28 618.994 104.326C618.881 103.424 618.949 102.522 618.927 101.642C618.927 98.0349 618.882 94.4274 618.904 90.8199Z" fill="#F7E62D" stroke="#F7E62D" stroke-width="0.094"/>
<path d="M638.656 104.303C632.094 104.326 625.556 104.281 618.995 104.326C618.882 103.424 618.95 102.522 618.927 101.643C618.927 98.035 618.882 94.4275 618.904 90.82C618.904 90.5268 618.972 90.2788 619.13 90.0308C619.604 89.0838 619.964 87.9339 621.046 87.5055C623.053 86.7164 625.15 86.1753 627.157 85.3861C627.225 84.9352 627.202 84.4166 626.796 84.1235C624.09 83.154 621.407 82.1168 618.724 81.1248C617.89 80.7189 616.965 80.4934 616.063 80.3582H500.826C500.33 80.3807 499.856 80.6287 499.36 80.7415C496.474 81.8463 493.566 82.906 490.68 84.0108C490.296 84.0784 490.093 84.4166 489.89 84.7097C489.913 84.8901 489.936 85.2058 489.936 85.3861C491.92 86.2204 494.039 86.6939 496.046 87.5055C497.128 87.9339 497.466 89.1064 497.94 90.0534L498.097 90.2112C498.255 91.3836 498.142 92.5786 498.187 93.7511C498.12 97.2684 498.255 100.808 498.097 104.326C491.536 104.326 484.975 104.281 478.414 104.326C478.301 104.731 478.504 105.07 478.932 104.957C486.012 104.912 493.069 105.002 500.149 104.889C510.679 104.889 521.186 104.912 531.715 104.889L531.873 104.822C532.346 104.934 532.819 104.889 533.315 104.889C552.39 104.889 571.465 104.912 590.562 104.889C596.56 104.912 602.58 104.889 608.6 104.889C618.52 104.889 628.464 104.979 638.384 104.934C638.678 104.867 638.769 104.664 638.656 104.303ZM521.389 90.8425C521.84 89.5799 523.057 88.7231 524.343 88.43C526.823 87.8438 529.596 90.0534 529.393 92.6463C529.416 95.1941 526.732 97.2684 524.275 96.6822C523.283 96.344 522.336 95.8254 521.727 94.9461C520.938 93.7511 520.758 92.1502 521.389 90.8425ZM588.669 89.8504C589.706 88.7005 591.352 88.0467 592.885 88.4525C594.035 88.7907 595.163 89.5348 595.659 90.6621C596.651 92.6012 595.884 95.2166 593.945 96.2312C592.231 97.1782 590.067 96.7273 588.759 95.3519C587.429 93.8413 587.338 91.3611 588.669 89.8504Z" fill="url(#paint1_radial_442_89)" stroke="#FCD109" stroke-width="0.094"/>
<path d="M594.415 114.211C594.731 114.279 592.772 112.33 593.155 112.239C593.516 112.285 594.884 111.223 596.537 112.089C598.191 112.955 597.781 114.982 597.593 115.734C597.37 116.629 596.8 117.2 596.349 117.651C596.101 117.854 595.545 118.169 595.207 118.147C595.41 117.042 594.756 116.862 594.711 115.734L594.415 114.211Z" fill="url(#paint2_linear_442_89)" stroke="#FCD109" stroke-width="0.094"/>
<path d="M522.341 115.434C522.296 116.561 521.642 116.742 521.845 117.846C521.507 117.869 520.95 117.553 520.703 117.35C520.252 116.899 519.683 116.328 519.459 115.434C519.271 114.682 518.861 112.655 520.515 111.789C522.168 110.922 523.536 111.984 523.897 111.939C524.28 112.029 522.322 113.979 522.637 113.911L522.341 115.434Z" fill="url(#paint3_linear_442_89)" stroke="#FCD109" stroke-width="0.094"/>
<path d="M591.467 128.655C591.806 128.361 592.031 128.361 592.482 128.361C589.777 134.223 586.62 140.085 581.874 144.649C581.366 145.102 580.83 145.522 580.269 145.907C579.726 146.304 579.193 146.677 578.663 147.057C578.145 147.417 577.629 147.779 577.127 148.157C575.842 148.856 574.715 149.826 573.294 150.254C570.702 151.494 567.906 152.328 565.088 152.914C563.983 153.095 562.856 153.365 561.728 153.388C560.33 153.794 558.842 153.501 557.422 153.591C556.633 153.726 555.933 153.275 555.167 153.365C554.502 153.271 553.838 153.159 553.179 153.027C552.51 152.89 551.845 152.732 551.186 152.554C540.85 149.329 530.703 141.438 527.748 130.765C527.614 130.046 527.547 129.317 527.547 128.586C527.862 129.217 528.189 129.844 528.528 130.465C532.733 139.634 541.075 146.849 550.931 149.025C551.731 149.389 552.597 149.262 553.363 149.577C554.062 149.577 554.739 149.555 555.415 149.78C557.738 149.825 560.06 149.803 562.382 149.803C562.697 149.825 562.991 149.667 563.307 149.6C567.177 149.469 570.969 148.413 574.501 146.812C575.207 146.492 575.903 146.15 576.587 145.789C577.185 145.474 577.77 145.133 578.338 144.766C578.897 144.406 579.439 144.023 579.965 143.617C584.14 140.31 587.747 136.027 590.197 131.1C590.663 130.214 591.09 129.393 591.467 128.655Z" fill="#BDA727" stroke="#BDA727" stroke-width="0.094"/>
<path d="M587.79 148.698C594.487 144.775 602.243 142.881 609.954 142.52C612.457 142.295 614.982 142.362 617.462 142.678C619.086 143.061 620.754 143.512 622.04 144.617C621.386 144.662 620.754 144.369 620.1 144.279C618.252 143.918 616.335 144.053 614.464 144.008C609.029 144.008 603.551 144.436 598.298 145.925C595.547 146.759 592.796 147.728 590.293 149.171C585.964 151.561 582.064 154.718 578.907 158.506C573.27 164.977 569.956 173.184 568.355 181.549C567.589 186.035 566.709 190.5 566.01 195.009C564.883 195.122 563.733 195.054 562.606 195.054C557.645 195.032 552.685 195.009 547.725 194.964C546.665 195.009 545.627 194.762 544.568 194.829C535.549 194.874 526.531 194.806 517.512 194.806L517.692 194.738C524.389 194.039 531.108 193.25 537.804 192.596C546.304 192.552 554.782 192.573 563.282 192.596C563.552 192.552 564.026 192.686 564.071 192.303C564.77 188.651 565.447 184.998 566.145 181.345C567.115 176.273 568.648 171.267 571.016 166.645C574.736 159.205 580.621 152.891 587.79 148.698Z" fill="#0D69B3" stroke="#0D69B3" stroke-width="0.094"/>
<path d="M598.299 145.925C603.552 144.437 609.031 144.008 614.465 144.008C616.336 144.053 618.253 143.918 620.102 144.279C620.755 144.369 621.386 144.662 622.041 144.617C623.101 145.474 623.732 146.736 624.205 147.999C625.243 150.998 625.829 154.109 626.325 157.243C626.347 158.506 626.573 159.926 625.896 161.076C625.265 162.204 624.003 162.745 622.808 163.083C618.456 164.21 613.902 163.15 609.55 164.21C605.965 164.977 602.628 166.961 600.351 169.825C597.668 173.161 596.247 177.31 595.458 181.459C594.849 185.157 594.083 188.854 593.474 192.574C593.203 193.409 593.046 194.311 592.888 195.19C597.148 195.258 601.41 195.19 605.672 195.235C607.295 195.19 608.918 195.28 610.542 195.167C611.444 197.242 611.241 199.587 610.948 201.774C610.587 204.231 610.001 206.666 608.896 208.921C607.971 210.837 606.438 212.596 604.341 213.273C603.259 213.701 602.087 213.611 600.937 213.611C597.149 213.611 593.361 213.656 589.573 213.611C588.964 216.384 588.559 219.225 588.017 222.043C587.026 227.522 586.056 233.024 585.064 238.525C585.041 238.706 585.019 239.089 585.019 239.292V239.314C575.166 239.314 565.335 239.337 555.482 239.314C555.505 239.225 555.527 239.066 555.55 238.976C555.573 238.863 555.595 238.615 555.618 238.48C555.64 238.661 555.663 238.999 555.686 239.157C556.294 239.225 557.399 239.54 557.557 238.661C559.09 230.363 560.511 222.021 562.089 213.724C561.48 213.588 560.849 213.588 560.217 213.701C560.128 214.017 560.037 214.332 559.924 214.648L560.06 213.633C553.927 213.61 547.772 213.633 541.639 213.61C540.151 213.566 538.618 213.61 537.13 213.43C534.582 213.317 532.012 213.407 529.464 213.159C526.307 213.159 523.173 212.866 520.017 212.866C517.536 212.618 515.034 212.708 512.531 212.596C510.908 212.393 509.239 212.483 507.594 212.415C504.911 212.122 502.182 212.326 499.499 212.032C496.658 212.055 493.817 211.806 490.977 211.739C490.999 211.716 491.022 211.626 491.022 211.604C491.969 211.626 492.893 211.558 493.84 211.536C495.937 211.265 498.056 211.446 500.153 211.153C502.34 211.153 504.505 210.859 506.692 210.859C508.631 210.589 510.592 210.747 512.531 210.476C514.809 210.476 517.04 210.183 519.318 210.161C521.19 209.913 523.083 210.048 524.955 209.8C527.142 209.822 529.306 209.484 531.493 209.507C533.635 209.258 535.822 209.326 537.964 209.101C537.762 208.267 537.603 207.433 537.423 206.598C537.266 206.079 536.634 206.192 536.228 206.124C531.336 205.425 526.466 204.726 521.595 204.05C521.911 203.801 522.339 203.914 522.7 203.87C526.488 203.576 530.253 203.238 534.041 202.968C534.898 202.922 535.732 202.765 536.589 202.742C536.206 201.57 535.98 200.285 535.462 199.202C527.368 197.962 519.273 196.857 511.201 195.527C513.298 195.189 515.417 195.031 517.514 194.806C526.533 194.806 535.552 194.873 544.571 194.828C545.63 194.761 546.668 195.009 547.727 194.964C552.688 195.009 557.648 195.032 562.608 195.054C563.736 195.054 564.886 195.121 566.013 195.009C566.712 190.499 567.591 186.035 568.358 181.548C569.959 173.183 573.273 164.976 578.91 158.506C582.066 154.717 585.967 151.561 590.296 149.171C592.797 147.729 595.548 146.759 598.299 145.925Z" fill="#107BD4" stroke="#107BD4" stroke-width="0.094"/>
<path d="M593.474 192.574C597.758 192.597 602.064 192.552 606.37 192.597C608.084 192.597 609.843 193.544 610.542 195.167C608.918 195.28 607.295 195.19 605.671 195.235C601.41 195.19 597.148 195.258 592.887 195.19C593.045 194.311 593.203 193.409 593.474 192.574ZM560.217 213.701C560.848 213.588 561.48 213.588 562.088 213.724C560.51 222.021 559.089 230.363 557.556 238.661C557.398 239.54 556.293 239.225 555.685 239.157C555.662 238.999 555.64 238.661 555.617 238.48C557.038 230.544 558.413 222.585 559.924 214.648C560.036 214.332 560.127 214.017 560.217 213.701Z" fill="#0D69B3" stroke="#0D69B3" stroke-width="0.094"/>
<path d="M595.447 114.843C595.266 114.505 595.244 114.099 595.244 113.715L595.063 113.738C594.793 112.746 593.959 111.799 592.876 111.754C592.065 111.686 591.05 111.709 590.577 112.475C589.675 113.693 590.103 115.249 590.058 116.624C590.058 116.714 590.081 116.872 590.081 116.962C590.081 117.887 589.968 118.789 589.81 119.69C589.675 119.961 589.608 120.254 589.608 120.57C589.225 122.689 588.457 124.786 587.421 126.703C587.218 126.973 587.06 127.266 586.992 127.582C586.316 128.754 585.504 129.837 584.67 130.919C584.535 131.032 584.422 131.167 584.309 131.302C583.723 132.024 583.092 132.632 582.437 133.264C582.28 133.354 582.167 133.467 582.032 133.557C581.265 134.301 580.408 135 579.484 135.563C579.371 135.631 579.258 135.721 579.123 135.812C573.351 139.622 566.339 141.2 559.507 141.268C553.713 141.448 547.872 140.208 542.642 137.705C542.552 137.66 542.326 137.57 542.236 137.525C541.357 137.052 540.455 136.646 539.643 136.06C539.462 135.969 539.282 135.857 539.079 135.766C538.245 135.27 537.456 134.729 536.712 134.098C536.464 133.872 536.193 133.692 535.923 133.489C535.111 132.835 534.277 132.136 533.578 131.347C533.398 131.144 533.217 130.964 533.037 130.784C530.58 128.236 528.663 125.124 527.649 121.742C526.679 119.059 526.814 116.128 526.702 113.31C525.89 112.07 524.176 111.371 522.824 112.137C522.26 112.543 522.192 113.287 521.764 113.806C521.065 121.246 524.244 128.664 529.317 134.03C529.317 134.211 529.407 134.323 529.566 134.391C530.468 135.225 531.346 136.082 532.248 136.894C532.406 137.052 532.587 137.209 532.789 137.345C533.691 138.089 534.661 138.765 535.608 139.464C535.788 139.599 535.969 139.712 536.171 139.825C537.412 140.546 538.584 141.403 539.914 141.899C540.004 141.967 540.162 142.08 540.252 142.125C544.536 144.176 549.159 145.574 553.893 146.025C554.412 146.025 554.931 146.07 555.449 146.183C557.704 146.318 559.959 146.251 562.213 146.206C569.18 145.597 576.373 143.906 582.19 139.802L582.258 139.893C582.438 139.735 582.596 139.599 582.776 139.464C583.701 138.788 584.603 138.066 585.505 137.322C585.707 137.164 585.933 136.984 586.136 136.781C587.128 135.699 588.278 134.707 589.112 133.467L589.248 133.534C589.315 133.422 589.428 133.196 589.496 133.083C590.262 132.046 590.962 130.964 591.638 129.882C591.683 129.814 591.795 129.701 591.84 129.634L591.751 129.543C591.818 129.453 591.976 129.273 592.044 129.183C593.284 126.657 594.388 124.019 594.772 121.224C594.93 121.156 595.02 121.021 595.02 120.863C595.043 119.961 595.358 119.104 595.268 118.202C595.469 117.098 595.492 115.97 595.447 114.843Z" fill="white" stroke="white" stroke-width="0.094"/>
<mask id="mask0_442_89" style="mask-type:luminance" maskUnits="userSpaceOnUse" x="521" y="111" width="75" height="36">
<path d="M595.447 114.843C595.266 114.505 595.244 114.099 595.244 113.715L595.063 113.738C594.793 112.746 593.959 111.799 592.876 111.754C592.065 111.686 591.05 111.709 590.577 112.475C589.675 113.693 590.103 115.249 590.058 116.624C590.058 116.714 590.081 116.872 590.081 116.962C590.081 117.887 589.968 118.789 589.81 119.69C589.675 119.961 589.608 120.254 589.608 120.57C589.225 122.689 588.457 124.786 587.421 126.703C587.218 126.973 587.06 127.266 586.992 127.582C586.316 128.754 585.504 129.837 584.67 130.919C584.535 131.032 584.422 131.167 584.309 131.302C583.723 132.024 583.092 132.632 582.437 133.264C582.28 133.354 582.167 133.467 582.032 133.557C581.265 134.301 580.408 135 579.484 135.563C579.371 135.631 579.258 135.721 579.123 135.812C573.351 139.622 566.339 141.2 559.507 141.268C553.713 141.448 547.872 140.208 542.642 137.705C542.552 137.66 542.326 137.57 542.236 137.525C541.357 137.052 540.455 136.646 539.643 136.06C539.462 135.969 539.282 135.857 539.079 135.766C538.245 135.27 537.456 134.729 536.712 134.098C536.464 133.872 536.193 133.692 535.923 133.489C535.111 132.835 534.277 132.136 533.578 131.347C533.398 131.144 533.217 130.964 533.037 130.784C530.58 128.236 528.663 125.124 527.649 121.742C526.679 119.059 526.814 116.128 526.702 113.31C525.89 112.07 524.176 111.371 522.824 112.137C522.26 112.543 522.192 113.287 521.764 113.806C521.065 121.246 524.244 128.664 529.317 134.03C529.317 134.211 529.407 134.323 529.566 134.391C530.468 135.225 531.346 136.082 532.248 136.894C532.406 137.052 532.587 137.209 532.789 137.345C533.691 138.089 534.661 138.765 535.608 139.464C535.788 139.599 535.969 139.712 536.171 139.825C537.412 140.546 538.584 141.403 539.914 141.899C540.004 141.967 540.162 142.08 540.252 142.125C544.536 144.176 549.159 145.574 553.893 146.025C554.412 146.025 554.931 146.07 555.449 146.183C557.704 146.318 559.959 146.251 562.213 146.206C569.18 145.597 576.373 143.906 582.19 139.802L582.258 139.893C582.438 139.735 582.596 139.599 582.776 139.464C583.701 138.788 584.603 138.066 585.505 137.322C585.707 137.164 585.933 136.984 586.136 136.781C587.128 135.699 588.278 134.707 589.112 133.467L589.248 133.534C589.315 133.422 589.428 133.196 589.496 133.083C590.262 132.046 590.962 130.964 591.638 129.882C591.683 129.814 591.795 129.701 591.84 129.634L591.751 129.543C591.818 129.453 591.976 129.273 592.044 129.183C593.284 126.657 594.388 124.019 594.772 121.224C594.93 121.156 595.02 121.021 595.02 120.863C595.043 119.961 595.358 119.104 595.268 118.202C595.469 117.098 595.492 115.97 595.447 114.843V114.843Z" fill="white"/>
</mask>
<g mask="url(#mask0_442_89)">
<path d="M520.031 114.081C521.859 114.654 526.058 113.212 527.246 114.532M521.084 119.643C522.835 119.033 526.591 117.59 528.148 118.44M522.887 125.204C523.734 125.478 525.403 123.991 526.232 123.555C527.465 122.906 528.731 122.409 530.102 122.198M525.593 131.066C526.466 129.825 527.511 128.795 528.773 127.913C530.023 127.04 533.444 124.706 534.912 125.505M528.148 135.275C529.139 134.487 529.543 133.093 530.584 132.265C531.843 131.264 533.772 131.084 535.063 130.465M532.394 138.394C532.691 136.214 534.904 133.584 537.017 133.772M535.664 141.438C536.78 141.326 537.724 138.828 538.479 137.981C539.61 136.713 540.781 136.323 542.277 135.876M542.127 144.144C542.055 142.566 543.685 138.044 545.584 138.281M546.937 145.647C546.858 143.783 547.822 138.176 550.094 137.981M551.898 148.653C551.467 146.046 551.495 142.275 553.551 140.386M558.061 149.254C557.831 147.081 555.672 142.689 558.061 140.987M564.674 147.751C563.643 146.556 563.044 141.841 563.471 140.536M570.987 146.699C570.192 145.255 569.207 143.9 568.906 142.224C568.726 141.222 569.041 139.795 568.883 139.033M576.248 144.444C574.524 143.316 574.045 139.17 574.595 137.38M581.359 142.19C580.132 139.558 578.824 137.518 578.803 134.524M586.319 137.38C584.413 136.097 581.981 133.766 582.261 131.217M591.58 133.321C588.684 132.679 585.208 130.088 583.463 127.759M593.985 128.361C591.896 127.913 584.993 125.22 585.417 122.499M596.24 123.1C593.329 122.033 589.094 121.073 586.77 119.041M597.743 118.29C595.909 118.447 593.283 117.559 591.419 117.237C589.35 116.881 587.431 116.183 585.417 115.734M595.939 113.63C592.403 113.842 589.084 112.632 585.868 111.526" stroke="#D1D1D1" stroke-width="2"/>
</g>
<path d="M143.43 124.471C146.698 123.978 150.458 123.67 153.232 125.704C154.958 126.998 155.575 129.341 155.451 131.437C155.575 134.889 153.972 138.588 150.89 140.376C148.177 141.856 144.91 141.978 141.889 141.67C139.855 141.424 137.821 140.315 136.773 138.465C134.43 133.102 137.327 125.519 143.43 124.471ZM45.66 128.355C45.8447 126.506 47.5093 124.841 49.4202 124.903C63.6609 124.903 77.8393 124.964 92.018 124.903C93.5591 124.78 95.2237 125.458 95.963 126.814C97.0108 128.663 96.0864 130.697 95.963 132.609C95.5319 135.197 95.6548 138.65 92.6346 139.636C82.2779 139.944 71.9212 139.636 61.5645 139.759C60.5782 146.293 59.6536 152.766 58.6669 159.239C58.6669 159.486 58.7289 160.041 58.7289 160.287C66.3113 160.225 73.8936 160.287 81.4759 160.225C83.5721 160.102 85.791 161.891 85.6061 164.109C85.4214 166.39 84.9281 168.609 84.6201 170.89C84.373 172.431 83.1403 173.849 81.5375 174.157C73.0918 174.342 64.5228 173.973 56.0781 174.342C54.7214 183.651 53.1186 192.959 51.7006 202.268C51.5162 204.117 50.0362 205.72 48.1869 205.781C44.6734 205.843 41.1592 205.843 37.6457 205.781C35.3649 205.843 33.5153 203.315 34.1315 201.158C37.893 176.87 41.7765 152.644 45.66 128.355ZM108.292 125.026C111.498 124.78 114.765 124.964 117.971 124.903C119.944 124.78 121.916 126.321 122.101 128.355C122.101 129.957 121.669 131.561 121.484 133.163C118.895 149.685 116.244 166.206 113.655 182.727C113.285 185.377 112.607 188.213 113.409 190.926C114.333 193.638 118.463 192.466 119.45 195.302C120.066 197.583 119.388 199.987 119.203 202.33C119.018 205.412 115.504 206.09 113.101 206.769C107.861 207.755 101.511 207.015 97.7503 202.699C95.0379 199.556 94.8528 195.117 95.4082 191.172C98.6752 170.213 101.942 149.253 105.272 128.232C105.457 126.69 106.689 125.273 108.292 125.026ZM230.659 128.355C230.844 126.506 232.508 124.903 234.358 124.903H243.728C246.07 124.841 247.982 127.369 247.427 129.588C245.269 143.273 243.05 156.959 240.893 170.644C244.16 170.151 247.859 169.534 250.14 166.884C253.961 162.568 257.106 157.575 259.448 152.336C260.249 150.301 260.681 147.342 263.332 146.972C266.846 146.849 270.421 146.91 273.935 146.972C276.339 146.91 278.127 149.623 277.325 151.842C276.401 155.11 274.86 158.13 273.257 161.027C269.681 166.822 265.736 172.555 260.558 177.117C262.838 183.959 265.736 190.617 268.263 197.337C269.003 199.556 270.791 202.145 269.127 204.303C267.215 206.892 263.64 205.597 260.989 205.905C258.215 205.597 254.208 207.015 252.667 203.871C249.769 197.151 247.366 190.248 244.406 183.528C242.68 183.589 240.893 183.651 239.166 183.466C239.043 183.713 238.797 184.206 238.673 184.453C237.748 190.617 236.762 196.782 235.776 202.946C235.406 204.426 234.234 205.721 232.632 205.844C229.365 205.967 226.036 205.905 222.707 205.905C221.289 205.905 219.994 204.981 219.378 203.748C218.761 202.514 219.131 201.097 219.317 199.741C223.138 175.945 226.899 152.15 230.659 128.355ZM401.973 135.075C402.405 133.348 404.069 132.177 405.795 132.238C408.261 132.3 410.789 132.177 413.316 132.3C415.35 132.362 416.953 134.396 416.706 136.369C416.336 139.883 415.473 143.397 415.227 146.91C417.631 146.91 420.096 146.849 422.501 146.91C424.659 146.91 426.447 149.129 426.076 151.225C425.768 153.137 425.336 154.986 425.028 156.896C424.72 158.5 423.364 159.794 421.823 160.041C418.864 160.225 415.967 159.917 413.069 160.225C411.836 168.486 410.48 176.746 409.185 185.007C409 186.918 408.877 189.075 409.987 190.74C411.651 192.774 414.548 192.034 416.891 192.281C418.741 192.836 419.912 194.871 419.603 196.72C419.295 198.816 419.234 200.912 418.741 202.946C418.001 205.227 415.35 205.659 413.315 206.213C407.706 207.693 401.233 207.693 396.24 204.425C391.617 201.281 390.877 195.178 391.37 190C392.664 180.013 394.699 170.089 395.808 160.04C394.082 160.102 391.986 160.349 390.692 158.807C389.212 157.266 389.952 154.985 390.199 153.074C390.569 151.04 390.507 148.389 392.726 147.279C394.514 146.601 396.549 147.095 398.459 146.848C399.631 142.903 400.74 138.958 401.973 135.075ZM367.143 155.047C371.027 151.164 375.712 147.958 381.075 146.356C383.417 145.307 386.438 147.28 386.377 149.869C385.945 153.26 385.144 156.588 384.589 159.917C384.342 161.582 382.924 163 381.259 163.185C375.218 164.232 369.979 167.869 365.787 172.185C364.739 173.48 363.198 174.712 363.013 176.5C361.718 185.13 360.362 193.761 359.006 202.391C358.821 204.24 357.218 206.029 355.307 205.905H345.936C343.779 206.029 341.868 203.871 342.115 201.713C344.827 184.637 347.54 167.623 350.19 150.547C350.314 148.821 351.547 147.157 353.334 146.972C355.615 146.848 357.896 146.91 360.239 146.91C362.088 146.91 363.814 148.574 363.814 150.486C363.814 153.136 363.568 155.848 363.506 158.561C364.985 157.637 365.91 156.157 367.143 155.047ZM136.711 147.218C140.04 146.541 143.492 147.095 146.821 146.91C148.732 146.664 150.766 147.897 151.074 149.808C151.321 151.534 150.827 153.198 150.642 154.863C148.115 170.706 145.587 186.549 143.122 202.392C142.937 204.18 141.458 205.967 139.546 205.905C136.218 205.905 132.889 205.967 129.499 205.844C127.402 205.597 125.861 203.194 126.416 201.159C129.067 184.7 131.595 168.302 134.245 151.842C134.369 150.054 134.862 147.958 136.711 147.218ZM336.197 148.02C327.011 146.294 317.642 145.061 308.333 145.985C300.01 147.034 291.627 150.794 286.511 157.637C279.421 166.637 277.017 178.72 278.619 189.94C279.483 195.302 281.825 200.727 286.202 204.056C290.27 207.2 295.757 207.631 300.689 206.83C307.593 205.474 313.449 201.036 318.258 196.104C318.504 198.2 318.011 200.296 318.134 202.33C318.258 204.241 319.984 206.029 321.895 205.905H328.183C330.032 205.905 331.574 204.18 331.697 202.391C334.348 185.685 336.998 169.041 339.587 152.397C339.957 150.301 338.293 148.267 336.197 148.02ZM318.875 177.055C316.408 181.679 312.956 185.871 309.072 189.445C306.854 191.295 304.017 193.206 300.997 192.59C298.038 191.974 296.62 188.891 295.942 186.24C294.401 179.336 295.819 171.815 299.702 165.836C301.428 163.061 304.202 160.966 307.408 160.102C311.908 158.993 316.655 159.547 321.032 160.78L321.279 161.027C320.724 166.39 319.676 171.692 318.875 177.055ZM215.186 167.808C215.124 161.644 213.46 155.171 209.145 150.547C206.186 147.28 201.747 145.616 197.432 145.677C190.281 145.431 183.562 148.945 178.322 153.63C177.15 154.555 176.349 155.911 175.055 156.65C175.055 154.616 175.24 152.582 175.178 150.486C175.24 148.574 173.452 146.91 171.603 146.91H165.314C163.342 146.91 161.739 148.637 161.616 150.547C157.732 175.206 153.787 199.864 149.903 224.522C149.349 226.803 151.322 229.146 153.664 229.084C157.116 229.023 160.63 229.331 164.02 228.837C166.733 228.097 166.671 224.953 167.103 222.673C168.089 217.248 168.767 211.823 169.384 206.336C181.528 208.679 195.645 207.076 204.707 197.891C212.104 189.816 215.556 178.658 215.186 167.808ZM197.925 174.034C197.556 179.706 195.521 185.439 191.576 189.569C186.46 194.439 178.692 193.761 172.404 192.097C172.281 191.912 172.096 191.542 172.034 191.357C173.02 185.994 173.514 180.569 174.747 175.267C178.199 169.596 182.391 163.863 188.37 160.719C190.59 159.671 193.61 159.918 195.213 161.952C197.925 165.343 198.172 169.904 197.925 174.034Z" fill="#107BD4" stroke="#107BD4" stroke-width="0.101"/>
</g>
<defs>
<linearGradient id="paint0_linear_442_89" x1="558.561" y1="106.963" x2="558.561" y2="239.486" gradientUnits="userSpaceOnUse">
<stop stop-color="#F7E830"/>
<stop offset="1" stop-color="#FDCB06"/>
</linearGradient>
<radialGradient id="paint1_radial_442_89" cx="0" cy="0" r="1" gradientUnits="userSpaceOnUse" gradientTransform="translate(557.867 167.407) scale(107.793 107.793)">
<stop offset="0.596" stop-color="#F29405"/>
<stop offset="0.736" stop-color="#F7D01E"/>
<stop offset="1" stop-color="#FDCB06"/>
</radialGradient>
<linearGradient id="paint2_linear_442_89" x1="595.432" y1="111.746" x2="595.47" y2="118.022" gradientUnits="userSpaceOnUse">
<stop stop-color="#FADA1C"/>
<stop offset="1" stop-color="#FDCB06"/>
</linearGradient>
<linearGradient id="paint3_linear_442_89" x1="521.619" y1="111.446" x2="521.582" y2="117.721" gradientUnits="userSpaceOnUse">
<stop stop-color="#FADA1C"/>
<stop offset="1" stop-color="#FDCB06"/>
</linearGradient>
<clipPath id="clip0_442_89">
<rect width="605" height="159.497" fill="white" transform="translate(34 80)"/>
</clipPath>
</defs>
</svg>
