<svg width="672" height="320" viewBox="0 0 672 320" fill="none" xmlns="http://www.w3.org/2000/svg">
<rect width="672" height="320" fill="white"/>
<path d="M481.102 56V159.781L479.779 160.875L478.457 161.968L477.189 163.117L475.977 164.265L474.819 165.413L473.662 166.616L472.56 167.819L471.458 169.022V56H355.562V150.486H345.973V56H230.078V150.65H220.489V56H104.594V163.882L75 261.703H101.012L114.073 218.397H117.82L139.423 261.703H170.835L149.894 218.397H197.398L184.227 261.703H212.608L225.614 218.507H231.897V218.397H240.824H241.541H295.162L282.597 261.594H311.254L323.434 218.397H336.329L336.66 261.594H360.687L388.297 218.397H406.373L397.004 261.594H425.221L434.424 218.397H450.736L450.626 220.858L450.684 223.373L450.795 225.779L451.015 228.185L451.18 229.333L451.345 230.481L451.565 231.63L451.786 232.778L452.061 233.926L452.336 235.02L452.667 236.113L452.997 237.207L453.383 238.3L453.769 239.339L454.21 240.378L454.651 241.362L455.147 242.401L455.644 243.386L456.195 244.315L456.746 245.299L457.353 246.229L458.014 247.104L458.675 248.033L459.392 248.853L460.108 249.728L460.824 250.549L461.651 251.369L462.478 252.134L463.525 253.009L464.572 253.884L465.674 254.704L466.831 255.47L467.989 256.235L469.146 256.946L470.358 257.547L471.626 258.203L472.838 258.75L474.106 259.297L475.373 259.789L476.696 260.281L478.019 260.719L479.341 261.102L480.664 261.484L481.986 261.812L484.632 262.414L487.332 262.851L489.977 263.234L492.623 263.562L495.213 263.781L497.748 263.89L500.228 264H502.597L505.794 263.948L508.99 263.896L512.242 263.732L515.493 263.568L518.745 263.294L521.996 263.021L525.247 262.693L528.499 262.31L531.805 261.872L535.112 261.38L538.419 260.833L541.725 260.286L545.032 259.685L548.338 259.029L551.645 258.373L555.007 257.607L564.816 218.402H597V56.0051L481.102 56ZM115.34 214.351L115.505 213.75L115.891 214.351H115.34ZM216.301 156.172L214.647 161.695L199.217 212.547L198.61 214.351H147.91L143.997 206.04L198.61 150.65H163.506L120.796 196.307L134.628 150.65H108.727V60.101H216.301L216.301 156.172ZM246.225 199.15L245.399 199.202L244.627 199.254L243.8 199.306H242.919H241.761H240.769L239.832 199.358H238.951L232.062 199.306L235.258 187.605L236.746 181.809L240.384 168.193H241.541H242.753L243.911 168.142H245.013H250.358L253.61 168.193L256.586 168.303L257.908 168.355L259.176 168.465L260.388 168.629L261.49 168.793L262.482 168.957L263.419 169.23L264.301 169.504L265.073 169.832L265.734 170.16L266.34 170.598L266.892 171.036L267.332 171.583L267.607 172.021L267.828 172.458L268.048 172.951L268.213 173.497L268.323 174.098L268.382 174.7V175.356V176.067L268.323 176.832L268.271 177.598L268.106 178.472L267.941 179.347L267.445 181.206L266.838 183.284L266.232 185.034L265.571 186.729L264.854 188.315L264.083 189.791L263.697 190.447L263.311 191.103L262.869 191.76L262.373 192.361L261.877 192.962L261.381 193.509L260.829 194.055L260.278 194.548L259.672 194.985L259.065 195.478L258.404 195.86L257.688 196.298L256.971 196.681L256.2 197.009L255.428 197.337L254.602 197.611L253.72 197.939L252.783 198.157L251.791 198.376L250.799 198.594L249.697 198.759L248.595 198.923L247.437 199.032L246.225 199.142L246.225 199.15ZM324.591 214.351L335.888 174.435L336.33 214.351H324.591ZM341.785 150.486H314.892L296.375 214.351H267.828L269.151 213.804L270.473 213.258L271.741 212.711L273.008 212.11L274.221 211.509L275.378 210.798L276.535 210.142L277.638 209.431L278.74 208.665L279.787 207.9L280.779 207.134L281.771 206.259L282.708 205.439L283.589 204.51L284.471 203.635L285.298 202.651L286.124 201.721L286.896 200.682L287.612 199.698L288.329 198.604L288.99 197.511L289.597 196.417L290.203 195.269L290.754 194.066L291.305 192.863L291.802 191.66L292.242 190.402L292.683 189.09L293.014 187.778L293.4 186.465L293.675 185.044L293.951 183.677L294.337 181.49L294.667 179.412L294.887 177.443L295.053 175.584L295.111 173.725L295.053 172.03L295.001 170.335L294.78 168.749L294.56 167.273L294.174 165.797L293.788 164.43L293.237 163.117L292.63 161.86L291.969 160.602L291.197 159.454L290.316 158.36L289.599 157.595L288.883 156.829L288.111 156.173L287.285 155.572L286.403 154.971L285.521 154.424L284.584 153.932L283.647 153.494L282.655 153.056L281.664 152.728L280.616 152.4L279.569 152.072L278.467 151.798L277.365 151.58L276.263 151.361L275.105 151.197L272.736 150.869L270.366 150.705L267.941 150.541L265.461 150.489H260.502H255.597H254.054H251.298H247.881H244.079H240.386H237.245H235.041H234.214V60.1039H341.788L341.785 150.486ZM407.145 214.351H390.998L415.466 176.076L407.145 214.351ZM467.269 152.29L467.211 174.435L465.833 176.349L464.566 178.318L463.298 180.286L462.141 182.254L461.039 184.223L459.937 186.246L459 188.214L458.063 190.183L457.181 192.097L456.41 194.065L455.638 195.979L454.977 197.838L454.37 199.697L453.819 201.502L453.323 203.251L452.882 205.001L452.606 206.149L452.331 207.352L452.056 208.5L451.835 209.703L451.615 210.852L451.45 212L451.285 213.148L451.175 214.351H435.358L448.86 150.65L403.34 150.598L362.614 214.354H359.638V60.1038H467.267L467.269 152.29ZM529.323 240.433L527.063 240.816L524.749 241.144L522.434 241.472L520.174 241.746L517.915 241.964L515.655 242.128L513.451 242.238H511.247H509.814L508.381 242.186L507.003 242.077L505.626 241.912L504.303 241.694L503.035 241.475L501.768 241.202L500.556 240.873L499.398 240.491L498.241 240.108L497.139 239.616L496.092 239.124L495.045 238.523L494.053 237.921L493.116 237.265L492.234 236.609L491.352 235.844L490.581 235.023L489.809 234.203L489.093 233.274L488.431 232.344L487.825 231.305L487.274 230.266L486.722 229.173L486.281 228.024L485.895 226.767L485.565 225.509L485.234 224.197L485.014 222.83L484.849 221.408L484.739 219.932L484.68 218.401H534.83L529.323 240.433ZM592.919 214.351H565.805L570.269 196.526H515.931L511.467 214.351H485.18V210.688L485.51 209.157L485.786 207.626L486.116 205.985L486.446 204.345L486.943 202.54L487.439 200.736L487.99 198.932L488.597 197.182L489.258 195.432L489.974 193.682L490.746 191.987L491.517 190.292L492.399 188.597L493.281 187.012L494.218 185.371L495.265 183.84L496.312 182.309L497.359 180.833L498.516 179.411L499.729 178.044L500.996 176.732L502.264 175.529L503.641 174.326L505.019 173.178L506.452 172.139L507.995 171.155L509.538 170.28L511.136 169.459L512.79 168.694L514.498 168.038L516.262 167.491L518.08 167.053L519.954 166.671L521.883 166.397L523.867 166.233L525.906 166.181L527.504 166.233L529.102 166.343L530.7 166.561L532.243 166.889L533.015 167.108L533.731 167.326L534.448 167.545L535.109 167.873L535.77 168.147L536.432 168.529L537.038 168.912L537.644 169.295L538.196 169.787L538.747 170.279L539.243 170.771L539.739 171.373L540.181 171.919L540.567 172.575L540.897 173.286L541.228 173.997L541.503 174.763L541.723 175.583L541.888 176.403L542.054 177.333L542.112 178.262V179.246V180.285L542.002 181.379H574.406L574.902 179.137L575.344 176.567L575.564 175.2L575.674 173.724L575.784 172.247V170.716L575.732 169.131L575.567 167.49L575.402 166.725L575.292 165.905L575.071 165.084L574.851 164.264L574.576 163.389L574.3 162.569L573.97 161.749L573.584 160.929L573.198 160.109L572.702 159.288L572.205 158.468L571.654 157.648L570.993 156.773L570.276 155.953L569.56 155.133L568.788 154.367L567.962 153.602L567.08 152.891L566.198 152.235L565.261 151.579L564.269 150.923L563.277 150.376L562.23 149.829L561.128 149.282L560.026 148.79L558.869 148.298L557.656 147.86L556.444 147.422L555.231 147.04L553.909 146.712L552.641 146.383L551.264 146.055L549.886 145.782L548.508 145.508L547.075 145.289L545.587 145.125L542.556 144.797L539.47 144.523L536.219 144.414L532.912 144.362L530.432 144.414L527.842 144.466L525.142 144.63L522.331 144.848L519.41 145.176L516.434 145.559L513.403 146.051L510.317 146.707L508.774 147.036L507.176 147.418L505.633 147.856L504.035 148.294L502.437 148.786L500.838 149.333L499.24 149.879L497.697 150.481L496.099 151.137L494.501 151.848L492.958 152.558L491.36 153.324L489.816 154.144L488.273 155.019L486.73 155.894L485.187 156.878V60.0959H592.926V214.346L592.919 214.351Z" fill="#003087"/>
</svg>
