<svg width="672" height="320" viewBox="0 0 672 320" fill="none" xmlns="http://www.w3.org/2000/svg">
<rect width="672" height="320" fill="white"/>
<g clip-path="url(#clip0_442_101)">
<path d="M259.524 168.605L256.443 177.337H256.186C255.672 175.368 254.731 172.372 253.19 168.776L236.668 127.258H220.488V193.431H231.189V152.597C231.189 150.029 231.189 147.118 231.103 143.523C231.018 141.725 230.847 140.355 230.761 139.328H231.018C231.531 141.896 232.131 143.779 232.559 144.978L252.419 193.259H259.952L279.642 144.55C280.07 143.437 280.498 141.211 280.926 139.328H281.183C280.926 144.207 280.755 148.573 280.669 151.227V193.174H292.055V127.086H276.474L259.524 168.605ZM302.841 145.748H313.97V193.174H302.841V145.748ZM308.491 125.717C306.607 125.717 305.067 126.401 303.783 127.6C302.498 128.798 301.814 130.339 301.814 132.223C301.814 134.02 302.498 135.561 303.783 136.76C305.067 137.958 306.607 138.557 308.491 138.557C310.374 138.557 312.001 137.873 313.199 136.76C314.483 135.561 315.168 134.02 315.168 132.223C315.168 130.425 314.483 128.884 313.199 127.6C312.086 126.401 310.46 125.717 308.491 125.717ZM353.434 145.32C351.379 144.892 349.239 144.635 347.185 144.635C342.134 144.635 337.511 145.748 333.659 147.974C329.807 150.2 326.725 153.282 324.756 157.134C322.701 161.072 321.674 165.609 321.674 170.831C321.674 175.368 322.701 179.391 324.67 183.072C326.639 186.668 329.379 189.578 333.06 191.547C336.569 193.516 340.679 194.544 345.301 194.544C350.609 194.544 355.146 193.431 358.741 191.376L358.827 191.29V181.018L358.399 181.36C356.772 182.559 354.889 183.586 353.006 184.185C351.037 184.87 349.239 185.212 347.698 185.212C343.247 185.212 339.737 183.928 337.254 181.103C334.686 178.364 333.402 174.597 333.402 169.889C333.402 165.01 334.686 161.157 337.34 158.332C339.994 155.507 343.503 154.052 347.784 154.052C351.379 154.052 355.06 155.251 358.399 157.647L358.827 157.99V147.118L358.741 147.032C357.286 146.433 355.659 145.748 353.434 145.32ZM390.159 144.978C387.419 144.978 384.851 145.834 382.625 147.632C380.742 149.173 379.458 151.398 378.345 154.052H378.259V145.748H367.131V193.174H378.259V168.947C378.259 164.838 379.115 161.414 380.999 158.932C382.882 156.363 385.279 155.079 388.19 155.079C389.217 155.079 390.244 155.336 391.528 155.507C392.727 155.85 393.583 156.192 394.182 156.62L394.61 156.963V145.834L394.353 145.748C393.583 145.235 392.042 144.978 390.159 144.978ZM420.463 144.721C412.673 144.721 406.424 147.032 402.058 151.57C397.606 156.107 395.466 162.356 395.466 170.232C395.466 177.594 397.692 183.586 401.972 187.952C406.252 192.232 412.074 194.458 419.35 194.458C426.969 194.458 433.047 192.147 437.413 187.524C441.864 182.901 444.004 176.738 444.004 169.119C444.004 161.585 441.95 155.593 437.755 151.227C433.732 146.861 427.825 144.721 420.463 144.721ZM429.366 181.189C427.311 183.843 424.058 185.127 420.035 185.127C416.011 185.127 412.758 183.843 410.447 181.018C408.136 178.364 407.023 174.512 407.023 169.632C407.023 164.582 408.221 160.729 410.447 157.99C412.758 155.251 415.926 153.881 419.949 153.881C423.887 153.881 426.969 155.165 429.195 157.819C431.42 160.472 432.619 164.325 432.619 169.375C432.448 174.512 431.506 178.535 429.366 181.189ZM468.83 165.438C465.32 163.982 463.094 162.869 462.067 161.928C461.211 161.072 460.783 159.873 460.783 158.332C460.783 157.048 461.297 155.764 462.581 154.908C463.865 154.052 465.32 153.624 467.46 153.624C469.344 153.624 471.313 153.966 473.196 154.48C475.079 154.994 476.791 155.764 478.161 156.791L478.589 157.134V146.69L478.332 146.604C477.048 146.091 475.336 145.577 473.282 145.149C471.227 144.807 469.344 144.635 467.803 144.635C462.495 144.635 458.129 145.92 454.705 148.745C451.281 151.398 449.654 154.994 449.654 159.188C449.654 161.414 449.997 163.383 450.767 165.01C451.538 166.636 452.651 168.177 454.192 169.461C455.732 170.66 457.958 172.029 461.04 173.313C463.608 174.426 465.577 175.282 466.776 175.967C467.974 176.652 468.744 177.422 469.344 178.022C469.772 178.706 470.029 179.563 470.029 180.675C470.029 183.843 467.632 185.384 462.752 185.384C460.869 185.384 458.9 185.041 456.588 184.271C454.277 183.5 452.137 182.388 450.339 181.103L449.911 180.761V191.633L450.168 191.719C451.795 192.489 453.763 193.003 456.16 193.602C458.557 194.03 460.698 194.372 462.581 194.372C468.316 194.372 473.025 193.088 476.363 190.263C479.788 187.524 481.585 184.014 481.585 179.477C481.585 176.31 480.729 173.485 478.846 171.344C476.363 169.29 473.282 167.15 468.83 165.438ZM510.948 144.721C503.158 144.721 496.909 147.032 492.543 151.57C488.177 156.107 485.951 162.356 485.951 170.232C485.951 177.594 488.177 183.586 492.457 187.952C496.737 192.232 502.559 194.458 509.835 194.458C517.454 194.458 523.532 192.147 527.898 187.524C532.349 182.901 534.49 176.738 534.49 169.119C534.49 161.585 532.435 155.593 528.24 151.227C524.217 146.861 518.31 144.721 510.948 144.721ZM519.765 181.189C517.711 183.843 514.458 185.127 510.434 185.127C506.325 185.127 503.158 183.843 500.847 181.018C498.535 178.364 497.422 174.512 497.422 169.632C497.422 164.582 498.621 160.729 500.847 157.99C503.158 155.251 506.325 153.881 510.349 153.881C514.201 153.881 517.368 155.165 519.594 157.819C521.82 160.472 523.018 164.325 523.018 169.375C523.018 174.512 521.906 178.535 519.765 181.189ZM593.985 154.908V145.748H582.771V131.709L582.429 131.795L571.814 134.962L571.557 135.048V145.748H554.778V139.756C554.778 137.017 555.463 134.876 556.661 133.507C557.86 132.137 559.658 131.452 561.883 131.452C563.424 131.452 565.051 131.795 566.848 132.565L567.277 132.822V123.148L567.02 123.063C565.479 122.549 563.424 122.207 560.77 122.207C557.432 122.207 554.521 122.977 551.868 124.261C549.214 125.717 547.245 127.686 545.789 130.339C544.334 132.907 543.564 135.818 543.564 139.157V145.748H535.774V154.823H543.564V193.174H554.778V154.908H571.557V179.306C571.557 189.322 576.265 194.372 585.682 194.372C587.223 194.372 588.849 194.115 590.39 193.859C592.017 193.516 593.215 193.088 593.9 192.746L593.985 192.66V183.5L593.557 183.843C592.873 184.271 592.273 184.613 591.246 184.87C590.39 185.127 589.62 185.212 589.02 185.212C586.795 185.212 585.254 184.699 584.141 183.415C583.114 182.216 582.6 180.247 582.6 177.337V154.908H593.985Z" fill="#737373"/>
<path d="M77.0156 105H129.492V157.476H77.0156V105Z" fill="#F25022"/>
<path d="M134.969 105H187.445V157.476H134.969V105Z" fill="#7FBA00"/>
<path d="M77.0156 162.955H129.492V215.431H77.0156V162.955Z" fill="#00A4EF"/>
<path d="M134.969 162.955H187.445V215.431H134.969V162.955Z" fill="#FFB900"/>
</g>
<defs>
<clipPath id="clip0_442_101">
<rect width="517" height="110.431" fill="white" transform="translate(77 105)"/>
</clipPath>
</defs>
</svg>
